<svg viewBox="0 0 37 48" fill="none" xmlns="http://www.w3.org/2000/svg">
<path d="M4 15.1668C4 12.379 6.2599 10.1191 9.04762 10.1191H26.7143C29.502 10.1191 31.7619 12.379 31.7619 15.1668V32.8334C 31.7619 35.6212 29.502 37.881 26.7143 37.881H9.04762C6.2599 37.881 4 35.6212 4 32.8334V15.1668Z" fill="#CDDFCC"/>
<path d="M26.353 7.52941H9.88243C9.23268 7.52941 8.70596 7.00269 8.70596 6.35294V5.17647C8.70596 4.52672 9.23268 4 9.88243 4H26.353C27.0027 4 27.5295 4.52672 27.5295 5.17647V6.35294C27.5295 7.00269 27.0027 7.52941 26.353 7.52941Z" fill="#52A350"/>
<path d="M26.353 44H9.88243C9.23268 44 8.70596 43.4733 8.70596 42.8235V41.6471C8.70596 40.9973 9.23268 40.4706 9.88243 40.4706H26.353C27.0027 40.4706 27.5295 40.9973 27.5295 41.6471V42.8235C27.5295 43.4733 27.0027 44 26.353 44Z" fill="#52A350"/>
<path fill-rule="evenodd" clip-rule="evenodd" d="M26.7143 12.6429H9.04762C7.65376 12.6429 6.52381 13.7728 6.52381 15.1667V32.8333C6.52381 34.2272 7.65376 35.3571 9.04762 35.3571H26.7143C28.1081 35.3571 29.2381 34.2272 29.2381 32.8333V15.1667C29.2381 13.7728 28.1081 12.6429 26.7143 12.6429ZM9.04762 10.1191C6.2599 10.1191 4 12.3789 4 15.1667V32.8333C4 35.6211 6.2599 37.881 9.04762 37.881H26.7143C29.502 37.881 31.7619 35.6211 31.7619 32.8333V15.1667C31.7619 12.3789 29.502 10.1191 26.7143 10.1191H9.04762Z" fill="#52A350"/>
<path fill-rule="evenodd" clip-rule="evenodd" d="M25.17 21.2421C25.5465 21.6125 25.5465 22.2129 25.17 22.5833L17.5986 30.0317C17.2221 30.4021 16.6117 30.4021 16.2352 30.0317L10.5919 24.4801C10.2154 24.1098 10.2154 23.5093 10.5919 23.1389L12.637 21.127C13.0135 20.7566 13.6239 20.7566 14.0004 21.127L16.9169 23.9961L21.7615 19.2302C22.138 18.8598 22.7484 18.8598 23.1249 19.2302L25.17 21.2421Z" fill="#52A350"/>
<path fill-rule="evenodd" clip-rule="evenodd" d="M25.17 21.2421C25.5465 21.6125 25.5465 22.2129 25.17 22.5833L17.5986 30.0317C17.2221 30.4021 16.6117 30.4021 16.2352 30.0317L10.5919 24.4801C10.2154 24.1098 10.2154 23.5093 10.5919 23.1389L12.637 21.127C13.0135 20.7566 13.6239 20.7566 14.0004 21.127L16.9169 23.9961L21.7615 19.2302C22.138 18.8598 22.7484 18.8598 23.1249 19.2302L25.17 21.2421Z" fill="#52A350"/>
</svg>
